<svg xmlns="http://www.w3.org/2000/svg" xmlns:xlink="http://www.w3.org/1999/xlink" width="500" zoomAndPan="magnify" viewBox="0 0 375 374.999991" height="500" preserveAspectRatio="xMidYMid meet" version="1.0"><defs><g/><clipPath id="id1"><path d="M 90 127 L 137 127 L 137 176.296875 L 90 176.296875 Z M 90 127 " clip-rule="nonzero"/></clipPath><clipPath id="id2"><path d="M 135 120.046875 L 217 120.046875 L 217 171 L 135 171 Z M 135 120.046875 " clip-rule="nonzero"/></clipPath></defs><rect x="-37.5" width="450" fill="#ffffff" y="-37.499999" height="449.999989" fill-opacity="1"/><rect x="-37.5" width="450" fill="#ffffff" y="-37.499999" height="449.999989" fill-opacity="1"/><rect x="-37.5" width="450" fill="#ffffff" y="-37.499999" height="449.999989" fill-opacity="1"/><rect x="-37.5" width="450" fill="#ffffff" y="-37.499999" height="449.999989" fill-opacity="1"/><g clip-path="url(#id1)"><path fill="#61a6ab" d="M 90.539062 175.066406 L 129.335938 127.4375 L 136.351562 134.417969 L 107.046875 169.726562 L 107.871094 176.296875 Z M 90.539062 175.066406 " fill-opacity="1" fill-rule="evenodd"/></g><path fill="#61a6ab" d="M 284.105469 174.65625 L 258.515625 143.039062 L 253.5625 147.554688 L 273.375 170.960938 L 272.550781 175.476562 Z M 284.105469 174.65625 " fill-opacity="1" fill-rule="evenodd"/><path fill="#ffce6d" d="M 254.390625 138.113281 L 224.671875 174.242188 L 178.449219 173.832031 L 203.625 147.964844 Z M 254.390625 138.113281 " fill-opacity="1" fill-rule="evenodd"/><g clip-path="url(#id2)"><path fill="#ed5b2d" d="M 186.703125 137.292969 L 180.097656 134.417969 L 180.097656 129.078125 L 135.113281 120.457031 L 175.972656 170.136719 L 201.148438 143.859375 L 216.832031 140.988281 L 211.054688 135.238281 L 192.894531 131.542969 L 192.894531 120.046875 L 186.703125 120.046875 Z M 186.703125 137.292969 " fill-opacity="1" fill-rule="evenodd"/></g><path fill="#61a6ab" d="M 139.652344 166.851562 L 139.652344 157.410156 L 130.984375 157.410156 L 130.984375 166.851562 Z M 130.984375 155.769531 L 139.652344 155.769531 L 139.652344 146.734375 C 135.113281 147.144531 131.398438 150.839844 130.984375 155.769531 Z M 141.714844 155.769531 L 150.382812 155.769531 C 149.96875 151.25 146.257812 147.144531 141.714844 146.734375 Z M 150.382812 157.410156 L 141.714844 157.410156 L 141.714844 166.851562 L 150.382812 166.851562 Z M 150.382812 157.410156 " fill-opacity="1" fill-rule="evenodd"/><path fill="#61a6ab" d="M 249.847656 168.496094 L 249.847656 162.746094 L 244.484375 162.746094 L 244.484375 168.496094 Z M 244.484375 161.925781 L 249.847656 161.925781 L 249.847656 156.589844 C 246.960938 157 244.898438 159.050781 244.484375 161.925781 Z M 250.675781 161.925781 L 256.039062 161.925781 C 255.628906 159.050781 253.5625 157 250.675781 156.589844 Z M 256.039062 162.746094 L 250.675781 162.746094 L 250.675781 168.496094 L 256.039062 168.496094 Z M 256.039062 162.746094 " fill-opacity="1" fill-rule="evenodd"/><g fill="#ed5b2d" fill-opacity="1"><g transform="translate(79.005053, 209.699611)"><g><path d="M 17.859375 -23.203125 C 18.234375 -23.203125 18.421875 -23.015625 18.421875 -22.640625 L 18.421875 -19.71875 C 18.421875 -19.34375 18.234375 -19.15625 17.859375 -19.15625 L 12.125 -19.15625 C 12 -19.15625 11.9375 -19.085938 11.9375 -18.953125 L 11.9375 -0.5625 C 11.9375 -0.1875 11.75 0 11.375 0 L 7.828125 0 C 7.441406 0 7.25 -0.1875 7.25 -0.5625 L 7.25 -18.953125 C 7.25 -19.085938 7.1875 -19.15625 7.0625 -19.15625 L 1.484375 -19.15625 C 1.109375 -19.15625 0.921875 -19.34375 0.921875 -19.71875 L 0.921875 -22.640625 C 0.921875 -23.015625 1.109375 -23.203125 1.484375 -23.203125 Z M 17.859375 -23.203125 "/></g></g></g><g fill="#ed5b2d" fill-opacity="1"><g transform="translate(98.391042, 209.699611)"><g><path d="M 6.125 0 C 5.820312 0 5.613281 -0.15625 5.5 -0.46875 L 0.828125 -16.40625 C 0.804688 -16.445312 0.796875 -16.515625 0.796875 -16.609375 C 0.796875 -16.890625 0.960938 -17.03125 1.296875 -17.03125 L 4.9375 -17.03125 C 5.289062 -17.03125 5.5 -16.863281 5.5625 -16.53125 L 7.859375 -6.734375 C 7.878906 -6.640625 7.921875 -6.59375 7.984375 -6.59375 C 8.054688 -6.59375 8.101562 -6.640625 8.125 -6.734375 L 10.578125 -16.53125 C 10.640625 -16.863281 10.847656 -17.03125 11.203125 -17.03125 L 14.453125 -17.03125 C 14.804688 -17.03125 15.015625 -16.863281 15.078125 -16.53125 L 17.59375 -6.6875 C 17.613281 -6.601562 17.65625 -6.5625 17.71875 -6.5625 C 17.789062 -6.5625 17.835938 -6.601562 17.859375 -6.6875 L 20.375 -16.53125 C 20.445312 -16.863281 20.660156 -17.03125 21.015625 -17.03125 L 24.65625 -17 C 24.851562 -17 24.988281 -16.9375 25.0625 -16.8125 C 25.144531 -16.695312 25.164062 -16.550781 25.125 -16.375 L 20.375 -0.46875 C 20.269531 -0.15625 20.0625 0 19.75 0 L 16.046875 0 C 15.734375 0 15.519531 -0.15625 15.40625 -0.46875 L 12.921875 -9.140625 C 12.878906 -9.234375 12.828125 -9.28125 12.765625 -9.28125 C 12.710938 -9.28125 12.675781 -9.234375 12.65625 -9.140625 L 10.46875 -0.5 C 10.40625 -0.164062 10.195312 0 9.84375 0 Z M 6.125 0 "/></g></g></g><g fill="#ed5b2d" fill-opacity="1"><g transform="translate(124.338447, 209.699611)"><g><path d="M 4.3125 -18.65625 C 3.46875 -18.65625 2.78125 -18.914062 2.25 -19.4375 C 1.71875 -19.957031 1.453125 -20.625 1.453125 -21.4375 C 1.453125 -22.257812 1.71875 -22.925781 2.25 -23.4375 C 2.78125 -23.957031 3.46875 -24.21875 4.3125 -24.21875 C 5.164062 -24.21875 5.851562 -23.960938 6.375 -23.453125 C 6.894531 -22.953125 7.15625 -22.28125 7.15625 -21.4375 C 7.15625 -20.601562 6.894531 -19.929688 6.375 -19.421875 C 5.851562 -18.910156 5.164062 -18.65625 4.3125 -18.65625 Z M 2.546875 0 C 2.171875 0 1.984375 -0.1875 1.984375 -0.5625 L 1.984375 -16.46875 C 1.984375 -16.84375 2.171875 -17.03125 2.546875 -17.03125 L 6.09375 -17.03125 C 6.46875 -17.03125 6.65625 -16.84375 6.65625 -16.46875 L 6.65625 -0.5625 C 6.65625 -0.1875 6.46875 0 6.09375 0 Z M 2.546875 0 "/></g></g></g><g fill="#ed5b2d" fill-opacity="1"><g transform="translate(132.954443, 209.699611)"><g><path d="M 10.609375 -17.296875 C 12.367188 -17.296875 13.789062 -16.753906 14.875 -15.671875 C 15.957031 -14.585938 16.5 -13.117188 16.5 -11.265625 L 16.5 -0.5625 C 16.5 -0.1875 16.3125 0 15.9375 0 L 12.390625 0 C 12.015625 0 11.828125 -0.1875 11.828125 -0.5625 L 11.828125 -10.3125 C 11.828125 -11.1875 11.582031 -11.898438 11.09375 -12.453125 C 10.613281 -13.015625 9.960938 -13.296875 9.140625 -13.296875 C 8.328125 -13.296875 7.664062 -13.015625 7.15625 -12.453125 C 6.644531 -11.898438 6.390625 -11.1875 6.390625 -10.3125 L 6.390625 -0.5625 C 6.390625 -0.1875 6.203125 0 5.828125 0 L 2.28125 0 C 1.90625 0 1.71875 -0.1875 1.71875 -0.5625 L 1.71875 -16.46875 C 1.71875 -16.84375 1.90625 -17.03125 2.28125 -17.03125 L 5.828125 -17.03125 C 6.203125 -17.03125 6.390625 -16.84375 6.390625 -16.46875 L 6.390625 -15.546875 C 6.390625 -15.453125 6.410156 -15.394531 6.453125 -15.375 C 6.503906 -15.351562 6.550781 -15.375 6.59375 -15.4375 C 7.5 -16.675781 8.835938 -17.296875 10.609375 -17.296875 Z M 10.609375 -17.296875 "/></g></g></g><g fill="#ed5b2d" fill-opacity="1"><g transform="translate(151.08117, 209.699611)"><g><path d="M 2.28125 0 C 1.90625 0 1.71875 -0.1875 1.71875 -0.5625 L 1.71875 -22.640625 C 1.71875 -23.015625 1.90625 -23.203125 2.28125 -23.203125 L 5.828125 -23.203125 C 6.203125 -23.203125 6.390625 -23.015625 6.390625 -22.640625 L 6.390625 -11.703125 C 6.390625 -11.609375 6.414062 -11.554688 6.46875 -11.546875 C 6.53125 -11.535156 6.582031 -11.5625 6.625 -11.625 L 11.03125 -16.703125 C 11.257812 -16.921875 11.492188 -17.03125 11.734375 -17.03125 L 15.734375 -17.03125 C 15.890625 -17.03125 16.007812 -17.003906 16.09375 -16.953125 C 16.1875 -16.898438 16.234375 -16.816406 16.234375 -16.703125 C 16.234375 -16.566406 16.191406 -16.445312 16.109375 -16.34375 L 12.03125 -11.234375 C 11.96875 -11.171875 11.957031 -11.082031 12 -10.96875 L 16.875 -0.65625 L 16.9375 -0.390625 C 16.9375 -0.128906 16.769531 0 16.4375 0 L 12.6875 0 C 12.382812 0 12.164062 -0.144531 12.03125 -0.4375 L 8.8125 -8.015625 C 8.75 -8.148438 8.660156 -8.160156 8.546875 -8.046875 L 6.5 -5.4375 C 6.425781 -5.34375 6.390625 -5.265625 6.390625 -5.203125 L 6.390625 -0.5625 C 6.390625 -0.1875 6.203125 0 5.828125 0 Z M 2.28125 0 "/></g></g></g><g fill="#ed5b2d" fill-opacity="1"><g transform="translate(168.743962, 209.699611)"><g><path d="M 2.359375 0 C 1.984375 0 1.796875 -0.1875 1.796875 -0.5625 L 1.796875 -22.640625 C 1.796875 -23.015625 1.984375 -23.203125 2.359375 -23.203125 L 5.90625 -23.203125 C 6.28125 -23.203125 6.46875 -23.015625 6.46875 -22.640625 L 6.46875 -0.5625 C 6.46875 -0.1875 6.28125 0 5.90625 0 Z M 2.359375 0 "/></g></g></g><g fill="#ed5b2d" fill-opacity="1"><g transform="translate(176.995431, 209.699611)"><g><path d="M 9.9375 -3.671875 C 11.394531 -3.742188 12.515625 -4.253906 13.296875 -5.203125 C 13.421875 -5.359375 13.5625 -5.4375 13.71875 -5.4375 C 13.851562 -5.4375 13.972656 -5.378906 14.078125 -5.265625 L 15.96875 -3.453125 C 16.101562 -3.316406 16.171875 -3.179688 16.171875 -3.046875 C 16.171875 -2.890625 16.128906 -2.757812 16.046875 -2.65625 C 15.316406 -1.75 14.378906 -1.035156 13.234375 -0.515625 C 12.097656 0.00390625 10.859375 0.265625 9.515625 0.265625 C 7.484375 0.265625 5.796875 -0.25 4.453125 -1.28125 C 3.117188 -2.320312 2.21875 -3.75 1.75 -5.5625 C 1.488281 -6.539062 1.359375 -7.570312 1.359375 -8.65625 C 1.359375 -9.9375 1.476562 -11.015625 1.71875 -11.890625 C 2.164062 -13.523438 3.054688 -14.835938 4.390625 -15.828125 C 5.722656 -16.828125 7.304688 -17.328125 9.140625 -17.328125 C 11.304688 -17.328125 13.023438 -16.6875 14.296875 -15.40625 C 15.566406 -14.125 16.390625 -12.328125 16.765625 -10.015625 C 16.859375 -9.285156 16.925781 -8.476562 16.96875 -7.59375 C 16.96875 -7.21875 16.78125 -7.03125 16.40625 -7.03125 L 6.234375 -7.03125 C 6.097656 -7.03125 6.03125 -6.960938 6.03125 -6.828125 C 6.09375 -6.359375 6.171875 -6.015625 6.265625 -5.796875 C 6.484375 -5.109375 6.914062 -4.582031 7.5625 -4.21875 C 8.21875 -3.851562 9.007812 -3.671875 9.9375 -3.671875 Z M 9.078125 -13.296875 C 8.367188 -13.296875 7.773438 -13.125 7.296875 -12.78125 C 6.828125 -12.4375 6.503906 -11.953125 6.328125 -11.328125 C 6.222656 -10.910156 6.15625 -10.632812 6.125 -10.5 C 6.101562 -10.375 6.160156 -10.3125 6.296875 -10.3125 L 11.9375 -10.3125 C 12.039062 -10.3125 12.09375 -10.351562 12.09375 -10.4375 C 12.09375 -10.675781 12.050781 -10.929688 11.96875 -11.203125 C 11.769531 -11.835938 11.425781 -12.34375 10.9375 -12.71875 C 10.445312 -13.101562 9.828125 -13.296875 9.078125 -13.296875 Z M 9.078125 -13.296875 "/></g></g></g><g fill="#ed5b2d" fill-opacity="1"><g transform="translate(195.122159, 209.699611)"><g><path d="M 14.34375 -22.640625 C 14.34375 -23.015625 14.53125 -23.203125 14.90625 -23.203125 L 18.453125 -23.203125 C 18.828125 -23.203125 19.015625 -23.015625 19.015625 -22.640625 L 19.015625 -0.5625 C 19.015625 -0.1875 18.828125 0 18.453125 0 L 14.90625 0 C 14.53125 0 14.34375 -0.1875 14.34375 -0.5625 L 14.34375 -9.515625 C 14.34375 -9.640625 14.28125 -9.703125 14.15625 -9.703125 L 6.890625 -9.703125 C 6.753906 -9.703125 6.6875 -9.640625 6.6875 -9.515625 L 6.6875 -0.5625 C 6.6875 -0.1875 6.5 0 6.125 0 L 2.578125 0 C 2.203125 0 2.015625 -0.1875 2.015625 -0.5625 L 2.015625 -22.640625 C 2.015625 -23.015625 2.203125 -23.203125 2.578125 -23.203125 L 6.125 -23.203125 C 6.5 -23.203125 6.6875 -23.015625 6.6875 -22.640625 L 6.6875 -13.921875 C 6.6875 -13.785156 6.753906 -13.71875 6.890625 -13.71875 L 14.15625 -13.71875 C 14.28125 -13.71875 14.34375 -13.785156 14.34375 -13.921875 Z M 14.34375 -22.640625 "/></g></g></g><g fill="#ed5b2d" fill-opacity="1"><g transform="translate(215.9331, 209.699611)"><g><path d="M 9.28125 0.265625 C 7.40625 0.265625 5.800781 -0.21875 4.46875 -1.1875 C 3.144531 -2.164062 2.238281 -3.492188 1.75 -5.171875 C 1.445312 -6.210938 1.296875 -7.335938 1.296875 -8.546875 C 1.296875 -9.898438 1.460938 -11.070312 1.796875 -12.0625 C 2.296875 -13.695312 3.203125 -14.976562 4.515625 -15.90625 C 5.835938 -16.832031 7.4375 -17.296875 9.3125 -17.296875 C 11.125 -17.296875 12.675781 -16.832031 13.96875 -15.90625 C 15.257812 -14.976562 16.160156 -13.707031 16.671875 -12.09375 C 17.003906 -11.082031 17.171875 -9.921875 17.171875 -8.609375 C 17.171875 -7.460938 17.023438 -6.347656 16.734375 -5.265625 C 16.222656 -3.546875 15.3125 -2.191406 14 -1.203125 C 12.6875 -0.222656 11.113281 0.265625 9.28125 0.265625 Z M 9.28125 -3.75 C 9.988281 -3.75 10.59375 -3.96875 11.09375 -4.40625 C 11.601562 -4.851562 11.972656 -5.460938 12.203125 -6.234375 C 12.367188 -6.828125 12.453125 -7.597656 12.453125 -8.546875 C 12.453125 -9.472656 12.367188 -10.257812 12.203125 -10.90625 C 11.972656 -11.65625 11.601562 -12.238281 11.09375 -12.65625 C 10.59375 -13.082031 9.96875 -13.296875 9.21875 -13.296875 C 8.488281 -13.296875 7.867188 -13.082031 7.359375 -12.65625 C 6.847656 -12.238281 6.484375 -11.65625 6.265625 -10.90625 C 6.085938 -10.257812 6 -9.472656 6 -8.546875 C 6 -7.640625 6.085938 -6.867188 6.265625 -6.234375 C 6.484375 -5.460938 6.851562 -4.851562 7.375 -4.40625 C 7.894531 -3.96875 8.53125 -3.75 9.28125 -3.75 Z M 9.28125 -3.75 "/></g></g></g><g fill="#ed5b2d" fill-opacity="1"><g transform="translate(234.391217, 209.699611)"><g><path d="M 20.609375 -17.296875 C 22.335938 -17.296875 23.6875 -16.773438 24.65625 -15.734375 C 25.625 -14.703125 26.109375 -13.25 26.109375 -11.375 L 26.109375 -0.5625 C 26.109375 -0.1875 25.921875 0 25.546875 0 L 22 0 C 21.625 0 21.4375 -0.1875 21.4375 -0.5625 L 21.4375 -10.34375 C 21.4375 -11.25 21.203125 -11.96875 20.734375 -12.5 C 20.273438 -13.03125 19.660156 -13.296875 18.890625 -13.296875 C 18.117188 -13.296875 17.488281 -13.03125 17 -12.5 C 16.507812 -11.96875 16.265625 -11.257812 16.265625 -10.375 L 16.265625 -0.5625 C 16.265625 -0.1875 16.078125 0 15.703125 0 L 12.203125 0 C 11.816406 0 11.625 -0.1875 11.625 -0.5625 L 11.625 -10.34375 C 11.625 -11.226562 11.378906 -11.941406 10.890625 -12.484375 C 10.410156 -13.023438 9.785156 -13.296875 9.015625 -13.296875 C 8.304688 -13.296875 7.710938 -13.082031 7.234375 -12.65625 C 6.765625 -12.238281 6.484375 -11.65625 6.390625 -10.90625 L 6.390625 -0.5625 C 6.390625 -0.1875 6.203125 0 5.828125 0 L 2.28125 0 C 1.90625 0 1.71875 -0.1875 1.71875 -0.5625 L 1.71875 -16.46875 C 1.71875 -16.84375 1.90625 -17.03125 2.28125 -17.03125 L 5.828125 -17.03125 C 6.203125 -17.03125 6.390625 -16.84375 6.390625 -16.46875 L 6.390625 -15.40625 C 6.390625 -15.320312 6.414062 -15.269531 6.46875 -15.25 C 6.53125 -15.226562 6.582031 -15.257812 6.625 -15.34375 C 7.53125 -16.644531 8.921875 -17.296875 10.796875 -17.296875 C 11.898438 -17.296875 12.859375 -17.066406 13.671875 -16.609375 C 14.492188 -16.160156 15.128906 -15.503906 15.578125 -14.640625 C 15.597656 -14.554688 15.632812 -14.519531 15.6875 -14.53125 C 15.75 -14.539062 15.800781 -14.578125 15.84375 -14.640625 C 16.351562 -15.523438 17.015625 -16.1875 17.828125 -16.625 C 18.648438 -17.070312 19.578125 -17.296875 20.609375 -17.296875 Z M 20.609375 -17.296875 "/></g></g></g><g fill="#ed5b2d" fill-opacity="1"><g transform="translate(262.061828, 209.699611)"><g><path d="M 9.9375 -3.671875 C 11.394531 -3.742188 12.515625 -4.253906 13.296875 -5.203125 C 13.421875 -5.359375 13.5625 -5.4375 13.71875 -5.4375 C 13.851562 -5.4375 13.972656 -5.378906 14.078125 -5.265625 L 15.96875 -3.453125 C 16.101562 -3.316406 16.171875 -3.179688 16.171875 -3.046875 C 16.171875 -2.890625 16.128906 -2.757812 16.046875 -2.65625 C 15.316406 -1.75 14.378906 -1.035156 13.234375 -0.515625 C 12.097656 0.00390625 10.859375 0.265625 9.515625 0.265625 C 7.484375 0.265625 5.796875 -0.25 4.453125 -1.28125 C 3.117188 -2.320312 2.21875 -3.75 1.75 -5.5625 C 1.488281 -6.539062 1.359375 -7.570312 1.359375 -8.65625 C 1.359375 -9.9375 1.476562 -11.015625 1.71875 -11.890625 C 2.164062 -13.523438 3.054688 -14.835938 4.390625 -15.828125 C 5.722656 -16.828125 7.304688 -17.328125 9.140625 -17.328125 C 11.304688 -17.328125 13.023438 -16.6875 14.296875 -15.40625 C 15.566406 -14.125 16.390625 -12.328125 16.765625 -10.015625 C 16.859375 -9.285156 16.925781 -8.476562 16.96875 -7.59375 C 16.96875 -7.21875 16.78125 -7.03125 16.40625 -7.03125 L 6.234375 -7.03125 C 6.097656 -7.03125 6.03125 -6.960938 6.03125 -6.828125 C 6.09375 -6.359375 6.171875 -6.015625 6.265625 -5.796875 C 6.484375 -5.109375 6.914062 -4.582031 7.5625 -4.21875 C 8.21875 -3.851562 9.007812 -3.671875 9.9375 -3.671875 Z M 9.078125 -13.296875 C 8.367188 -13.296875 7.773438 -13.125 7.296875 -12.78125 C 6.828125 -12.4375 6.503906 -11.953125 6.328125 -11.328125 C 6.222656 -10.910156 6.15625 -10.632812 6.125 -10.5 C 6.101562 -10.375 6.160156 -10.3125 6.296875 -10.3125 L 11.9375 -10.3125 C 12.039062 -10.3125 12.09375 -10.351562 12.09375 -10.4375 C 12.09375 -10.675781 12.050781 -10.929688 11.96875 -11.203125 C 11.769531 -11.835938 11.425781 -12.34375 10.9375 -12.71875 C 10.445312 -13.101562 9.828125 -13.296875 9.078125 -13.296875 Z M 9.078125 -13.296875 "/></g></g></g><g fill="#ed5b2d" fill-opacity="1"><g transform="translate(280.188547, 209.699611)"><g><path d="M 8.515625 0.234375 C 7.035156 0.234375 5.742188 0.0234375 4.640625 -0.390625 C 3.535156 -0.816406 2.679688 -1.40625 2.078125 -2.15625 C 1.484375 -2.90625 1.1875 -3.753906 1.1875 -4.703125 L 1.1875 -4.875 C 1.1875 -5.25 1.375 -5.4375 1.75 -5.4375 L 5.109375 -5.4375 C 5.484375 -5.4375 5.671875 -5.367188 5.671875 -5.234375 L 5.671875 -5 C 5.671875 -4.519531 5.929688 -4.109375 6.453125 -3.765625 C 6.984375 -3.421875 7.660156 -3.25 8.484375 -3.25 C 9.234375 -3.25 9.835938 -3.390625 10.296875 -3.671875 C 10.765625 -3.960938 11 -4.34375 11 -4.8125 C 11 -5.207031 10.800781 -5.503906 10.40625 -5.703125 C 10.007812 -5.898438 9.359375 -6.109375 8.453125 -6.328125 C 7.367188 -6.617188 6.5625 -6.875 6.03125 -7.09375 C 4.59375 -7.582031 3.453125 -8.175781 2.609375 -8.875 C 1.773438 -9.582031 1.359375 -10.601562 1.359375 -11.9375 C 1.359375 -13.570312 2 -14.867188 3.28125 -15.828125 C 4.5625 -16.785156 6.238281 -17.265625 8.3125 -17.265625 C 9.726562 -17.265625 10.972656 -17.035156 12.046875 -16.578125 C 13.117188 -16.128906 13.945312 -15.492188 14.53125 -14.671875 C 15.113281 -13.859375 15.40625 -12.929688 15.40625 -11.890625 C 15.40625 -11.785156 15.351562 -11.691406 15.25 -11.609375 C 15.15625 -11.535156 15.019531 -11.5 14.84375 -11.5 L 11.59375 -11.5 C 11.21875 -11.5 11.03125 -11.566406 11.03125 -11.703125 L 11.03125 -11.890625 C 11.03125 -12.378906 10.785156 -12.789062 10.296875 -13.125 C 9.816406 -13.457031 9.164062 -13.625 8.34375 -13.625 C 7.613281 -13.625 7.007812 -13.488281 6.53125 -13.21875 C 6.0625 -12.957031 5.828125 -12.59375 5.828125 -12.125 C 5.828125 -11.6875 6.050781 -11.351562 6.5 -11.125 C 6.957031 -10.90625 7.707031 -10.675781 8.75 -10.4375 C 9.382812 -10.300781 10.003906 -10.132812 10.609375 -9.9375 C 12.191406 -9.476562 13.4375 -8.882812 14.34375 -8.15625 C 15.25 -7.425781 15.703125 -6.363281 15.703125 -4.96875 C 15.703125 -3.332031 15.050781 -2.054688 13.75 -1.140625 C 12.445312 -0.222656 10.703125 0.234375 8.515625 0.234375 Z M 8.515625 0.234375 "/></g></g></g><g fill="#61a6ab" fill-opacity="1"><g transform="translate(118.550621, 249.893351)"><g><path d="M 11.359375 0 C 11.140625 0 10.988281 -0.0976562 10.90625 -0.296875 L 7.734375 -7.21875 C 7.710938 -7.28125 7.65625 -7.3125 7.5625 -7.3125 L 4.71875 -7.3125 C 4.625 -7.3125 4.578125 -7.265625 4.578125 -7.171875 L 4.578125 -0.390625 C 4.578125 -0.128906 4.445312 0 4.1875 0 L 2.15625 0 C 1.894531 0 1.765625 -0.128906 1.765625 -0.390625 L 1.765625 -16.59375 C 1.765625 -16.851562 1.894531 -16.984375 2.15625 -16.984375 L 8.71875 -16.984375 C 9.707031 -16.984375 10.582031 -16.773438 11.34375 -16.359375 C 12.101562 -15.953125 12.691406 -15.375 13.109375 -14.625 C 13.523438 -13.875 13.734375 -13.015625 13.734375 -12.046875 C 13.734375 -10.929688 13.445312 -9.976562 12.875 -9.1875 C 12.300781 -8.40625 11.515625 -7.867188 10.515625 -7.578125 C 10.460938 -7.566406 10.425781 -7.539062 10.40625 -7.5 C 10.394531 -7.457031 10.40625 -7.421875 10.4375 -7.390625 L 13.796875 -0.453125 L 13.84375 -0.265625 C 13.84375 -0.0859375 13.726562 0 13.5 0 Z M 4.71875 -14.5625 C 4.625 -14.5625 4.578125 -14.515625 4.578125 -14.421875 L 4.578125 -9.640625 C 4.578125 -9.546875 4.625 -9.5 4.71875 -9.5 L 8.34375 -9.5 C 9.113281 -9.5 9.734375 -9.726562 10.203125 -10.1875 C 10.679688 -10.644531 10.921875 -11.25 10.921875 -12 C 10.921875 -12.757812 10.679688 -13.375 10.203125 -13.84375 C 9.734375 -14.320312 9.113281 -14.5625 8.34375 -14.5625 Z M 4.71875 -14.5625 "/></g></g></g><g fill="#61a6ab" fill-opacity="1"><g transform="translate(135.849312, 249.893351)"><g><path d="M 7.046875 -2.1875 C 7.648438 -2.195312 8.171875 -2.316406 8.609375 -2.546875 C 9.054688 -2.785156 9.414062 -3.109375 9.6875 -3.515625 C 9.769531 -3.640625 9.878906 -3.703125 10.015625 -3.703125 C 10.085938 -3.703125 10.160156 -3.679688 10.234375 -3.640625 L 11.390625 -2.71875 C 11.503906 -2.601562 11.5625 -2.5 11.5625 -2.40625 C 11.5625 -2.332031 11.535156 -2.257812 11.484375 -2.1875 C 11.015625 -1.4375 10.375 -0.851562 9.5625 -0.4375 C 8.757812 -0.0195312 7.832031 0.1875 6.78125 0.1875 C 5.507812 0.1875 4.441406 -0.113281 3.578125 -0.71875 C 2.710938 -1.320312 2.085938 -2.164062 1.703125 -3.25 C 1.378906 -4.132812 1.21875 -5.132812 1.21875 -6.25 C 1.21875 -7.363281 1.304688 -8.222656 1.484375 -8.828125 C 1.785156 -9.972656 2.390625 -10.882812 3.296875 -11.5625 C 4.203125 -12.238281 5.300781 -12.578125 6.59375 -12.578125 C 9.613281 -12.578125 11.382812 -10.921875 11.90625 -7.609375 C 11.976562 -7.078125 12.03125 -6.414062 12.0625 -5.625 C 12.0625 -5.363281 11.9375 -5.234375 11.6875 -5.234375 L 4.171875 -5.234375 C 4.066406 -5.234375 4.015625 -5.1875 4.015625 -5.09375 C 4.015625 -4.65625 4.066406 -4.296875 4.171875 -4.015625 C 4.347656 -3.441406 4.6875 -2.992188 5.1875 -2.671875 C 5.6875 -2.347656 6.304688 -2.1875 7.046875 -2.1875 Z M 6.5625 -10.15625 C 5.945312 -10.15625 5.441406 -10.003906 5.046875 -9.703125 C 4.648438 -9.398438 4.378906 -8.984375 4.234375 -8.453125 C 4.128906 -8.128906 4.066406 -7.789062 4.046875 -7.4375 C 4.023438 -7.34375 4.066406 -7.296875 4.171875 -7.296875 L 9.046875 -7.296875 C 9.140625 -7.296875 9.1875 -7.34375 9.1875 -7.4375 C 9.125 -7.925781 9.078125 -8.21875 9.046875 -8.3125 C 8.898438 -8.875 8.609375 -9.320312 8.171875 -9.65625 C 7.742188 -9.988281 7.207031 -10.15625 6.5625 -10.15625 Z M 6.5625 -10.15625 "/></g></g></g><g fill="#61a6ab" fill-opacity="1"><g transform="translate(151.427856, 249.893351)"><g><path d="M 6.234375 -12.578125 C 7.242188 -12.578125 8.140625 -12.398438 8.921875 -12.046875 C 9.710938 -11.691406 10.316406 -11.203125 10.734375 -10.578125 C 11.148438 -9.953125 11.359375 -9.242188 11.359375 -8.453125 L 11.359375 -0.390625 C 11.359375 -0.128906 11.234375 0 10.984375 0 L 8.9375 0 C 8.6875 0 8.5625 -0.128906 8.5625 -0.390625 L 8.5625 -1 C 8.5625 -1.0625 8.539062 -1.09375 8.5 -1.09375 C 8.46875 -1.101562 8.429688 -1.09375 8.390625 -1.0625 C 7.515625 -0.226562 6.347656 0.1875 4.890625 0.1875 C 3.703125 0.1875 2.722656 -0.113281 1.953125 -0.71875 C 1.179688 -1.332031 0.796875 -2.25 0.796875 -3.46875 C 0.796875 -4.726562 1.234375 -5.707031 2.109375 -6.40625 C 2.992188 -7.113281 4.238281 -7.46875 5.84375 -7.46875 L 8.40625 -7.46875 C 8.507812 -7.46875 8.5625 -7.515625 8.5625 -7.609375 L 8.5625 -8.171875 C 8.5625 -8.796875 8.367188 -9.28125 7.984375 -9.625 C 7.609375 -9.976562 7.046875 -10.15625 6.296875 -10.15625 C 5.734375 -10.15625 5.265625 -10.050781 4.890625 -9.84375 C 4.523438 -9.644531 4.273438 -9.367188 4.140625 -9.015625 C 4.078125 -8.785156 3.929688 -8.679688 3.703125 -8.703125 L 1.53125 -8.96875 C 1.394531 -8.976562 1.296875 -9.007812 1.234375 -9.0625 C 1.171875 -9.125 1.144531 -9.195312 1.15625 -9.28125 C 1.300781 -10.25 1.835938 -11.039062 2.765625 -11.65625 C 3.703125 -12.269531 4.859375 -12.578125 6.234375 -12.578125 Z M 5.671875 -2.03125 C 6.460938 -2.03125 7.140625 -2.238281 7.703125 -2.65625 C 8.273438 -3.082031 8.5625 -3.617188 8.5625 -4.265625 L 8.5625 -5.375 C 8.5625 -5.476562 8.507812 -5.53125 8.40625 -5.53125 L 6.390625 -5.53125 C 5.535156 -5.53125 4.859375 -5.367188 4.359375 -5.046875 C 3.859375 -4.722656 3.609375 -4.257812 3.609375 -3.65625 C 3.609375 -3.144531 3.800781 -2.742188 4.1875 -2.453125 C 4.582031 -2.171875 5.078125 -2.03125 5.671875 -2.03125 Z M 5.671875 -2.03125 "/></g></g></g><g fill="#61a6ab" fill-opacity="1"><g transform="translate(166.521848, 249.893351)"><g><path d="M 1.921875 0 C 1.660156 0 1.53125 -0.128906 1.53125 -0.390625 L 1.53125 -16.578125 C 1.53125 -16.835938 1.660156 -16.96875 1.921875 -16.96875 L 3.953125 -16.96875 C 4.210938 -16.96875 4.34375 -16.835938 4.34375 -16.578125 L 4.34375 -0.390625 C 4.34375 -0.128906 4.210938 0 3.953125 0 Z M 1.921875 0 "/></g></g></g><g fill="#61a6ab" fill-opacity="1"><g transform="translate(174.856375, 249.893351)"><g><path d="M 13.25 -14.921875 C 13.25 -14.671875 13.125 -14.546875 12.875 -14.546875 L 4.71875 -14.546875 C 4.625 -14.546875 4.578125 -14.492188 4.578125 -14.390625 L 4.578125 -9.90625 C 4.578125 -9.8125 4.625 -9.765625 4.71875 -9.765625 L 10.15625 -9.765625 C 10.414062 -9.765625 10.546875 -9.632812 10.546875 -9.375 L 10.546875 -7.734375 C 10.546875 -7.472656 10.414062 -7.34375 10.15625 -7.34375 L 4.71875 -7.34375 C 4.625 -7.34375 4.578125 -7.296875 4.578125 -7.203125 L 4.578125 -2.5625 C 4.578125 -2.46875 4.625 -2.421875 4.71875 -2.421875 L 12.875 -2.421875 C 13.125 -2.421875 13.25 -2.289062 13.25 -2.03125 L 13.25 -0.390625 C 13.25 -0.128906 13.125 0 12.875 0 L 2.15625 0 C 1.894531 0 1.765625 -0.128906 1.765625 -0.390625 L 1.765625 -16.578125 C 1.765625 -16.835938 1.894531 -16.96875 2.15625 -16.96875 L 12.875 -16.96875 C 13.125 -16.96875 13.25 -16.835938 13.25 -16.578125 Z M 13.25 -14.921875 "/></g></g></g><g fill="#61a6ab" fill-opacity="1"><g transform="translate(191.646288, 249.893351)"><g><path d="M 6.125 0.140625 C 5.113281 0.140625 4.222656 -0.00390625 3.453125 -0.296875 C 2.679688 -0.597656 2.085938 -1.007812 1.671875 -1.53125 C 1.253906 -2.0625 1.046875 -2.648438 1.046875 -3.296875 L 1.046875 -3.421875 C 1.046875 -3.679688 1.175781 -3.8125 1.4375 -3.8125 L 3.375 -3.8125 C 3.625 -3.8125 3.75 -3.753906 3.75 -3.640625 L 3.75 -3.46875 C 3.75 -3.0625 3.972656 -2.707031 4.421875 -2.40625 C 4.867188 -2.113281 5.429688 -1.96875 6.109375 -1.96875 C 6.753906 -1.96875 7.273438 -2.097656 7.671875 -2.359375 C 8.078125 -2.628906 8.28125 -2.96875 8.28125 -3.375 C 8.28125 -3.738281 8.113281 -4.015625 7.78125 -4.203125 C 7.457031 -4.390625 6.925781 -4.585938 6.1875 -4.796875 L 5.265625 -5.09375 C 4.429688 -5.332031 3.734375 -5.585938 3.171875 -5.859375 C 2.609375 -6.140625 2.128906 -6.515625 1.734375 -6.984375 C 1.347656 -7.460938 1.15625 -8.078125 1.15625 -8.828125 C 1.15625 -9.953125 1.597656 -10.847656 2.484375 -11.515625 C 3.367188 -12.191406 4.535156 -12.53125 5.984375 -12.53125 C 6.972656 -12.53125 7.835938 -12.367188 8.578125 -12.046875 C 9.316406 -11.734375 9.890625 -11.296875 10.296875 -10.734375 C 10.710938 -10.179688 10.921875 -9.550781 10.921875 -8.84375 C 10.921875 -8.757812 10.882812 -8.691406 10.8125 -8.640625 C 10.75 -8.585938 10.660156 -8.5625 10.546875 -8.5625 L 8.671875 -8.5625 C 8.410156 -8.5625 8.28125 -8.609375 8.28125 -8.703125 L 8.28125 -8.84375 C 8.28125 -9.257812 8.070312 -9.609375 7.65625 -9.890625 C 7.25 -10.179688 6.691406 -10.328125 5.984375 -10.328125 C 5.359375 -10.328125 4.847656 -10.207031 4.453125 -9.96875 C 4.054688 -9.738281 3.859375 -9.410156 3.859375 -8.984375 C 3.859375 -8.597656 4.039062 -8.300781 4.40625 -8.09375 C 4.78125 -7.894531 5.40625 -7.675781 6.28125 -7.4375 L 6.828125 -7.296875 C 7.703125 -7.035156 8.429688 -6.773438 9.015625 -6.515625 C 9.597656 -6.253906 10.085938 -5.878906 10.484375 -5.390625 C 10.890625 -4.910156 11.09375 -4.289062 11.09375 -3.53125 C 11.09375 -2.382812 10.640625 -1.484375 9.734375 -0.828125 C 8.835938 -0.179688 7.632812 0.140625 6.125 0.140625 Z M 6.125 0.140625 "/></g></g></g><g fill="#61a6ab" fill-opacity="1"><g transform="translate(206.061911, 249.893351)"><g><path d="M 8.0625 -10.5 C 8.0625 -10.238281 7.9375 -10.109375 7.6875 -10.109375 L 5.328125 -10.109375 C 5.234375 -10.109375 5.1875 -10.054688 5.1875 -9.953125 L 5.1875 -4.234375 C 5.1875 -3.609375 5.316406 -3.15625 5.578125 -2.875 C 5.847656 -2.601562 6.273438 -2.46875 6.859375 -2.46875 L 7.484375 -2.46875 C 7.742188 -2.46875 7.875 -2.335938 7.875 -2.078125 L 7.875 -0.453125 C 7.875 -0.203125 7.742188 -0.0664062 7.484375 -0.046875 L 6.328125 -0.03125 C 5.046875 -0.03125 4.085938 -0.25 3.453125 -0.6875 C 2.828125 -1.132812 2.507812 -1.960938 2.5 -3.171875 L 2.5 -9.953125 C 2.5 -10.054688 2.445312 -10.109375 2.34375 -10.109375 L 1.09375 -10.109375 C 0.832031 -10.109375 0.703125 -10.238281 0.703125 -10.5 L 0.703125 -12 C 0.703125 -12.257812 0.832031 -12.390625 1.09375 -12.390625 L 2.34375 -12.390625 C 2.445312 -12.390625 2.5 -12.4375 2.5 -12.53125 L 2.5 -15.25 C 2.5 -15.5 2.628906 -15.625 2.890625 -15.625 L 4.796875 -15.625 C 5.054688 -15.625 5.1875 -15.5 5.1875 -15.25 L 5.1875 -12.53125 C 5.1875 -12.4375 5.234375 -12.390625 5.328125 -12.390625 L 7.6875 -12.390625 C 7.9375 -12.390625 8.0625 -12.257812 8.0625 -12 Z M 8.0625 -10.5 "/></g></g></g><g fill="#61a6ab" fill-opacity="1"><g transform="translate(217.570238, 249.893351)"><g><path d="M 6.234375 -12.578125 C 7.242188 -12.578125 8.140625 -12.398438 8.921875 -12.046875 C 9.710938 -11.691406 10.316406 -11.203125 10.734375 -10.578125 C 11.148438 -9.953125 11.359375 -9.242188 11.359375 -8.453125 L 11.359375 -0.390625 C 11.359375 -0.128906 11.234375 0 10.984375 0 L 8.9375 0 C 8.6875 0 8.5625 -0.128906 8.5625 -0.390625 L 8.5625 -1 C 8.5625 -1.0625 8.539062 -1.09375 8.5 -1.09375 C 8.46875 -1.101562 8.429688 -1.09375 8.390625 -1.0625 C 7.515625 -0.226562 6.347656 0.1875 4.890625 0.1875 C 3.703125 0.1875 2.722656 -0.113281 1.953125 -0.71875 C 1.179688 -1.332031 0.796875 -2.25 0.796875 -3.46875 C 0.796875 -4.726562 1.234375 -5.707031 2.109375 -6.40625 C 2.992188 -7.113281 4.238281 -7.46875 5.84375 -7.46875 L 8.40625 -7.46875 C 8.507812 -7.46875 8.5625 -7.515625 8.5625 -7.609375 L 8.5625 -8.171875 C 8.5625 -8.796875 8.367188 -9.28125 7.984375 -9.625 C 7.609375 -9.976562 7.046875 -10.15625 6.296875 -10.15625 C 5.734375 -10.15625 5.265625 -10.050781 4.890625 -9.84375 C 4.523438 -9.644531 4.273438 -9.367188 4.140625 -9.015625 C 4.078125 -8.785156 3.929688 -8.679688 3.703125 -8.703125 L 1.53125 -8.96875 C 1.394531 -8.976562 1.296875 -9.007812 1.234375 -9.0625 C 1.171875 -9.125 1.144531 -9.195312 1.15625 -9.28125 C 1.300781 -10.25 1.835938 -11.039062 2.765625 -11.65625 C 3.703125 -12.269531 4.859375 -12.578125 6.234375 -12.578125 Z M 5.671875 -2.03125 C 6.460938 -2.03125 7.140625 -2.238281 7.703125 -2.65625 C 8.273438 -3.082031 8.5625 -3.617188 8.5625 -4.265625 L 8.5625 -5.375 C 8.5625 -5.476562 8.507812 -5.53125 8.40625 -5.53125 L 6.390625 -5.53125 C 5.535156 -5.53125 4.859375 -5.367188 4.359375 -5.046875 C 3.859375 -4.722656 3.609375 -4.257812 3.609375 -3.65625 C 3.609375 -3.144531 3.800781 -2.742188 4.1875 -2.453125 C 4.582031 -2.171875 5.078125 -2.03125 5.671875 -2.03125 Z M 5.671875 -2.03125 "/></g></g></g><g fill="#61a6ab" fill-opacity="1"><g transform="translate(232.664226, 249.893351)"><g><path d="M 8.0625 -10.5 C 8.0625 -10.238281 7.9375 -10.109375 7.6875 -10.109375 L 5.328125 -10.109375 C 5.234375 -10.109375 5.1875 -10.054688 5.1875 -9.953125 L 5.1875 -4.234375 C 5.1875 -3.609375 5.316406 -3.15625 5.578125 -2.875 C 5.847656 -2.601562 6.273438 -2.46875 6.859375 -2.46875 L 7.484375 -2.46875 C 7.742188 -2.46875 7.875 -2.335938 7.875 -2.078125 L 7.875 -0.453125 C 7.875 -0.203125 7.742188 -0.0664062 7.484375 -0.046875 L 6.328125 -0.03125 C 5.046875 -0.03125 4.085938 -0.25 3.453125 -0.6875 C 2.828125 -1.132812 2.507812 -1.960938 2.5 -3.171875 L 2.5 -9.953125 C 2.5 -10.054688 2.445312 -10.109375 2.34375 -10.109375 L 1.09375 -10.109375 C 0.832031 -10.109375 0.703125 -10.238281 0.703125 -10.5 L 0.703125 -12 C 0.703125 -12.257812 0.832031 -12.390625 1.09375 -12.390625 L 2.34375 -12.390625 C 2.445312 -12.390625 2.5 -12.4375 2.5 -12.53125 L 2.5 -15.25 C 2.5 -15.5 2.628906 -15.625 2.890625 -15.625 L 4.796875 -15.625 C 5.054688 -15.625 5.1875 -15.5 5.1875 -15.25 L 5.1875 -12.53125 C 5.1875 -12.4375 5.234375 -12.390625 5.328125 -12.390625 L 7.6875 -12.390625 C 7.9375 -12.390625 8.0625 -12.257812 8.0625 -12 Z M 8.0625 -10.5 "/></g></g></g><g fill="#61a6ab" fill-opacity="1"><g transform="translate(244.172552, 249.893351)"><g><path d="M 7.046875 -2.1875 C 7.648438 -2.195312 8.171875 -2.316406 8.609375 -2.546875 C 9.054688 -2.785156 9.414062 -3.109375 9.6875 -3.515625 C 9.769531 -3.640625 9.878906 -3.703125 10.015625 -3.703125 C 10.085938 -3.703125 10.160156 -3.679688 10.234375 -3.640625 L 11.390625 -2.71875 C 11.503906 -2.601562 11.5625 -2.5 11.5625 -2.40625 C 11.5625 -2.332031 11.535156 -2.257812 11.484375 -2.1875 C 11.015625 -1.4375 10.375 -0.851562 9.5625 -0.4375 C 8.757812 -0.0195312 7.832031 0.1875 6.78125 0.1875 C 5.507812 0.1875 4.441406 -0.113281 3.578125 -0.71875 C 2.710938 -1.320312 2.085938 -2.164062 1.703125 -3.25 C 1.378906 -4.132812 1.21875 -5.132812 1.21875 -6.25 C 1.21875 -7.363281 1.304688 -8.222656 1.484375 -8.828125 C 1.785156 -9.972656 2.390625 -10.882812 3.296875 -11.5625 C 4.203125 -12.238281 5.300781 -12.578125 6.59375 -12.578125 C 9.613281 -12.578125 11.382812 -10.921875 11.90625 -7.609375 C 11.976562 -7.078125 12.03125 -6.414062 12.0625 -5.625 C 12.0625 -5.363281 11.9375 -5.234375 11.6875 -5.234375 L 4.171875 -5.234375 C 4.066406 -5.234375 4.015625 -5.1875 4.015625 -5.09375 C 4.015625 -4.65625 4.066406 -4.296875 4.171875 -4.015625 C 4.347656 -3.441406 4.6875 -2.992188 5.1875 -2.671875 C 5.6875 -2.347656 6.304688 -2.1875 7.046875 -2.1875 Z M 6.5625 -10.15625 C 5.945312 -10.15625 5.441406 -10.003906 5.046875 -9.703125 C 4.648438 -9.398438 4.378906 -8.984375 4.234375 -8.453125 C 4.128906 -8.128906 4.066406 -7.789062 4.046875 -7.4375 C 4.023438 -7.34375 4.066406 -7.296875 4.171875 -7.296875 L 9.046875 -7.296875 C 9.140625 -7.296875 9.1875 -7.34375 9.1875 -7.4375 C 9.125 -7.925781 9.078125 -8.21875 9.046875 -8.3125 C 8.898438 -8.875 8.609375 -9.320312 8.171875 -9.65625 C 7.742188 -9.988281 7.207031 -10.15625 6.5625 -10.15625 Z M 6.5625 -10.15625 "/></g></g></g></svg>